<svg width="64mm" height="64mm" viewBox="0 0 64 64" xmlns="http://www.w3.org/2000/svg">
   <path
      d="M33.17 21.64c-3.45.07-6.82 1.81-8.49 4.75-.18.33-.21.32-.5-.12-6.03-9.4-21.12-3.14-18.7 7.76 1.24 5.62 6.41 9.15 11.94 8.15 2.75-.5 5.59-2.43 6.87-4.67.17-.3.16-.3.46.17a10.23 10.23 0 0 0 13.03 3.64 10.38 10.38 0 0 0 0-18.7 10.08 10.08 0 0 0-4.6-.98zm10.3.04c-2.57 0-2.72 0-2.7.1.02.06.63 1.1 1.37 2.3a3572.97 3572.97 0 0 1 3.98 6.56l.66 1.07-.81 1.38-2.46 4.13-2.98 5-.07.14h5.43l.12-.16 1.28-2.12a227.24 227.24 0 0 1 1.84-3.05c.46-.78.42-.77.8-.15a848.83 848.83 0 0 0 2.23 3.68l1.1 1.8H58.79l-.08-.14a320.2 320.2 0 0 0-3.63-5.97l-.51-.83a441.93 441.93 0 0 0-2.17-3.55l-.1-.18.67-1.12.85-1.42a324.4 324.4 0 0 0 4.4-7.43 40.5 40.5 0 0 0-2.72-.04h-2.68l-.12.15a.57.57 0 0 0-.12.23 54.44 54.44 0 0 0-1.69 2.82c-1.51 2.57-1.28 2.4-1.88 1.4a1346.64 1346.64 0 0 0-2.64-4.3l-.18-.3zm-9.94 4.17a5.91 5.91 0 0 1 5.81 3.9c0 .07-.57.08-2.98.08-2.91 0-2.99 0-3.32.13a2.02 2.02 0 0 0-.7 3.28c.6.6.7.6 4.12.6h2.89l-.04.14c-1.43 4.58-8.36 5.16-10.7.89l-.29-.54h-8.04l-.18.36c-1.03 2.1-3.99 3.56-6.2 3.08a5.93 5.93 0 0 1-4.63-3.88c0-.02 1.3-.04 2.9-.04 2.41 0 2.97-.02 3.2-.09a2.01 2.01 0 0 0 .38-3.73l-.31-.17-3.09-.02a29.08 29.08 0 0 1-3.08-.07c0-.56 1.24-2.21 2.14-2.85 2.91-2.09 7.26-1.01 8.76 2.16l.1.22h8.07l.19-.36a5.79 5.79 0 0 1 5-3.1z" />
   <style>
      svg { fill: #000;}
      @media (prefers-color-scheme: dark) {
      svg { fill: #FFF;}
      }
   </style>
</svg>