<?xml version="1.0" encoding="UTF-8" standalone="no"?>
<!-- Created with Inkscape (http://www.inkscape.org/) -->

<svg
   width="64mm"
   height="64mm"
   viewBox="0 0 64 64"
   version="1.1"
   id="svg1"
   inkscape:export-filename="blanco.png"
   inkscape:export-xdpi="96"
   inkscape:export-ydpi="96"
   xmlns:inkscape="http://www.inkscape.org/namespaces/inkscape"
   xmlns:sodipodi="http://sodipodi.sourceforge.net/DTD/sodipodi-0.dtd"
   xmlns="http://www.w3.org/2000/svg"
   xmlns:svg="http://www.w3.org/2000/svg">
  <sodipodi:namedview
     id="namedview1"
     pagecolor="#ffffff"
     bordercolor="#000000"
     borderopacity="0.25"
     inkscape:showpageshadow="2"
     inkscape:pageopacity="0.0"
     inkscape:pagecheckerboard="0"
     inkscape:deskcolor="#d1d1d1"
     inkscape:document-units="mm" />
  <defs
     id="defs1" />
  <g
     inkscape:label="Layer 1"
     inkscape:groupmode="layer"
     id="layer1">
    <path
       id="path3"
       style="fill:#fdfdfd;fill-opacity:1;stroke-width:0.245656;paint-order:stroke fill markers"
       inkscape:label="FondoNegro"
       d="m 33.174221,21.644347 c -3.452431,0.07047 -6.827633,1.808535 -8.492573,4.744892 -0.185018,0.326306 -0.216326,0.318865 -0.496589,-0.117365 -6.037977,-9.398211 -21.1251699,-3.145185 -18.7109047,7.754895 1.2448342,5.620264 6.4191987,9.150903 11.9453817,8.150735 h 1.14e-4 c 2.750245,-0.49776 5.589097,-2.426154 6.867543,-4.664917 0.172711,-0.302444 0.164498,-0.30534 0.465544,0.162838 2.771987,4.310926 8.41251,5.891119 13.02258,3.648311 7.819765,-3.804333 7.820552,-14.911383 0.0014,-18.69775 -1.447877,-0.701123 -3.033083,-1.013673 -4.602368,-0.981639 z m 10.295542,0.03289 c -2.565677,0 -2.722721,0.006 -2.697022,0.103405 0.015,0.05687 0.628542,1.092345 1.363514,2.300953 0.734974,1.208607 1.530212,2.517224 1.767089,2.9081 0.516196,0.851786 1.329421,2.187858 2.22109,3.648887 l 0.655043,1.073156 -0.81361,1.378978 c -0.447474,0.758441 -1.5538,2.615387 -2.458479,4.12655 -1.78234,2.977193 -2.864488,4.797596 -2.976768,5.00767 l -0.07097,0.132947 h 2.716065 2.716068 l 0.113788,-0.16226 c 0.06261,-0.08937 0.639314,-1.039941 1.281462,-2.112379 0.642152,-1.07244 1.227616,-2.042952 1.301081,-2.156695 0.07346,-0.113743 0.316063,-0.517125 0.539058,-0.89647 0.45957,-0.781792 0.423055,-0.77494 0.800567,-0.151757 0.14076,0.232358 0.455391,0.750213 0.699126,1.150705 0.243737,0.400497 0.935061,1.53735 1.536276,2.526456 l 1.093121,1.798362 2.76442,0.002 2.764421,0.002 -0.07028,-0.132946 c -0.08103,-0.153378 -2.124903,-3.515913 -2.325532,-3.825919 -0.07361,-0.113745 -0.316759,-0.510646 -0.54033,-0.882043 -0.223573,-0.3714 -0.571196,-0.943069 -0.772521,-1.270382 -0.201326,-0.327312 -0.429661,-0.701505 -0.507438,-0.831497 -0.07778,-0.129992 -0.574274,-0.94097 -1.103276,-1.80217 -0.529005,-0.861201 -1.008169,-1.646269 -1.064729,-1.744584 l -0.102827,-0.178761 0.670505,-1.121165 c 0.36874,-0.616644 0.752163,-1.254111 0.852038,-1.416601 1.121659,-1.824806 4.412998,-7.392574 4.391061,-7.428069 -0.0158,-0.02558 -1.235103,-0.04651 -2.709489,-0.04651 H 52.82164 L 52.699194,21.8329 c -0.06735,0.08563 -0.122442,0.189847 -0.122442,0.231503 0,0.04166 -0.02067,0.08461 -0.04593,0.09544 -0.0381,0.01635 -0.621208,0.98263 -1.643028,2.722876 -1.509767,2.571255 -1.273421,2.394848 -1.881111,1.403331 -0.268889,-0.438724 -0.709652,-1.156639 -0.979559,-1.595363 -0.269905,-0.438726 -0.711483,-1.15664 -0.981291,-1.595365 -0.269811,-0.438725 -0.57181,-0.937276 -0.671083,-1.107893 l -0.180492,-0.31021 z m -9.93848,4.169944 c 1.585457,-0.05787 3.206736,0.489632 4.423951,1.706847 0.582087,0.582085 1.385902,1.858376 1.385902,2.200549 0,0.06224 -0.571194,0.07697 -2.981728,0.07697 -2.911767,0 -2.989689,0.003 -3.323213,0.127755 -1.313813,0.491561 -1.690907,2.278924 -0.691624,3.278206 0.597202,0.597201 0.68649,0.610469 4.11997,0.611302 l 2.884559,6.61e-4 -0.04154,0.132946 c -1.430994,4.581124 -8.355679,5.153568 -10.690812,0.883774 l -0.295439,-0.540211 -4.020149,-0.0018 -4.020029,-0.0018 -0.18315,0.371375 c -1.029827,2.088405 -3.985541,3.555932 -6.194034,3.075336 v -2.23e-4 C 12.235257,37.40574 11.148629,36.7615 10.200125,35.572588 9.9123146,35.21183 9.265571,34.050309 9.265571,33.894246 c 0,-0.0246 1.309531,-0.04512 2.910063,-0.04547 2.408459,-4.41e-4 2.96004,-0.01583 3.200422,-0.08875 1.780122,-0.540015 2.01504,-2.870996 0.376338,-3.734403 l -0.312172,-0.164569 -3.087325,-0.01673 c -2.070982,-0.01126 -3.087326,-0.0369 -3.087326,-0.07778 0,-0.554504 1.243983,-2.210786 2.141463,-2.851206 2.917823,-2.082076 7.264114,-1.009688 8.765729,2.162813 l 0.104904,0.221579 h 4.032841 4.032727 l 0.18511,-0.36445 c 0.985165,-1.938675 2.964499,-3.013721 5.002943,-3.088132 z" />
  </g>
</svg>
