<?xml version="1.0" encoding="UTF-8" standalone="no"?>
<!-- Created with Inkscape (http://www.inkscape.org/) -->

<svg
   width="275.43127mm"
   height="159.27914mm"
   viewBox="0 0 275.43127 159.27914"
   version="1.1"
   id="svg1"
   xml:space="preserve"
   sodipodi:docname="logo.svg"
   inkscape:version="1.3 (0e150ed6c4, 2023-07-21)"
   inkscape:export-filename="..\..\OneDrive\Escritorio\logo.png"
   inkscape:export-xdpi="42.333332"
   inkscape:export-ydpi="42.333332"
   xmlns:inkscape="http://www.inkscape.org/namespaces/inkscape"
   xmlns:sodipodi="http://sodipodi.sourceforge.net/DTD/sodipodi-0.dtd"
   xmlns="http://www.w3.org/2000/svg"
   xmlns:svg="http://www.w3.org/2000/svg"><sodipodi:namedview
     id="namedview1"
     pagecolor="#ffffff"
     bordercolor="#000000"
     borderopacity="0.25"
     inkscape:showpageshadow="2"
     inkscape:pageopacity="0.0"
     inkscape:pagecheckerboard="0"
     inkscape:deskcolor="#d1d1d1"
     inkscape:document-units="mm"
     inkscape:zoom="0.22315867"
     inkscape:cx="970.16172"
     inkscape:cy="2.2405583"
     inkscape:window-width="1920"
     inkscape:window-height="1009"
     inkscape:window-x="-8"
     inkscape:window-y="-8"
     inkscape:window-maximized="1"
     inkscape:current-layer="layer1" /><defs
     id="defs1" /><path
     style="fill:#000000"
     d="M 1.9160864e-5,79.639579 V -1.4207023e-6 H 137.71564 275.43127 V 79.639579 159.27916 H 137.71564 1.9160864e-5 Z M 187.45731,152.65768 c 2.61937,-0.13732 8.45344,-0.37032 12.96458,-0.51778 4.51115,-0.14745 10.88099,-0.39099 14.15521,-0.54119 3.27422,-0.1502 9.10828,-0.38439 12.96458,-0.52043 3.85631,-0.13604 10.34521,-0.37217 14.41979,-0.52473 4.07459,-0.15256 8.74779,-0.34705 10.3849,-0.4322 1.72609,-0.0898 2.97656,-0.26711 2.97656,-0.42213 0,-0.14702 -0.80367,-1.56498 -1.78593,-3.15103 -0.98227,-1.58605 -1.905,-3.09112 -2.05053,-3.34461 -0.14552,-0.25348 -1.03677,-1.6955 -1.98056,-3.20447 l -1.71598,-2.74359 -5.82465,0.17256 c -3.20355,0.0949 -8.38448,0.29042 -11.51318,0.43449 -3.1287,0.14406 -10.5701,0.43629 -16.53646,0.6494 -5.96635,0.21311 -14.0626,0.50564 -17.99166,0.65008 -3.92907,0.14443 -10.06079,0.38697 -13.62605,0.53897 -3.56526,0.15199 -9.87557,0.39017 -14.02291,0.52928 -4.14735,0.13911 -9.17774,0.33009 -11.17865,0.42439 -2.00091,0.0943 -3.63448,0.2455 -3.63015,0.33599 0.004,0.0905 3.96316,2.87479 8.7974,6.18734 l 8.78952,6.02282 5.82084,-0.14675 c 3.20145,-0.0807 7.96395,-0.25909 10.58333,-0.39641 z m -15.30814,-3.20692 c -0.0935,-0.89447 -0.16999,-2.09264 -0.16999,-2.6626 v -1.03628 l 0.8599,0.0829 0.8599,0.0829 0.0757,2.57969 0.0757,2.57968 h -0.76564 -0.76564 z m 5.05303,0.97303 c -0.54708,-0.18943 -1.16621,-0.48676 -1.37583,-0.66073 -0.20962,-0.17397 -0.6289,-0.82815 -0.93174,-1.45373 -0.41285,-0.85283 -0.50796,-1.40419 -0.38012,-2.20365 0.0942,-0.5893 0.51837,-1.48827 0.94821,-2.00973 0.47311,-0.57397 1.16084,-1.04561 1.75594,-1.20421 0.57474,-0.15318 1.37914,-0.16921 1.95018,-0.0389 0.53457,0.12201 1.32252,0.47147 1.751,0.77658 0.42847,0.3051 0.93193,0.92383 1.11879,1.37495 l 0.33975,0.82023 0.56899,-1.1301 c 0.39657,-0.78768 0.92554,-1.32086 1.74571,-1.75962 0.87359,-0.46733 1.44347,-0.59521 2.21216,-0.49638 0.56948,0.0732 1.33603,0.35756 1.70344,0.63187 0.36741,0.27431 0.9135,0.82786 1.21353,1.2301 0.39611,0.53106 0.54186,1.11506 0.53217,2.13233 -0.008,0.87026 -0.18914,1.66925 -0.4774,2.10919 -0.25523,0.38953 -0.84453,0.94023 -1.30957,1.22378 -0.54082,0.32976 -1.32436,0.5159 -2.1743,0.51653 -1.08916,8.1e-4 -1.50378,-0.14326 -2.29923,-0.79894 -0.53376,-0.43997 -1.04516,-1.03528 -1.13645,-1.32292 -0.0913,-0.28764 -0.26535,-0.52298 -0.3868,-0.52298 -0.12145,0 -0.45246,0.44648 -0.73558,0.99219 -0.28312,0.5457 -0.86034,1.186 -1.28271,1.42289 -0.42237,0.23689 -1.12513,0.49482 -1.5617,0.57318 -0.43656,0.0784 -1.24136,-0.0125 -1.78844,-0.20196 z m 2.73484,-2.23678 c 0.46624,-0.46624 0.77339,-1.05226 0.77339,-1.47556 0,-0.42946 -0.31239,-1.01456 -0.80435,-1.50652 -0.67255,-0.67255 -0.94351,-0.77764 -1.65364,-0.64139 -0.46711,0.0896 -1.11719,0.46739 -1.44461,0.83946 -0.32742,0.37207 -0.59531,0.94102 -0.59531,1.26433 0,0.32331 0.19133,0.861 0.42518,1.19487 0.23385,0.33387 0.68034,0.71 0.99219,0.83585 0.31185,0.12585 0.78452,0.23636 1.05038,0.24558 0.26585,0.009 0.8314,-0.33125 1.25677,-0.75662 z m 8.11558,-0.45337 c 0.3386,-0.37244 0.59531,-0.99594 0.59531,-1.44585 0,-0.48707 -0.24954,-1.04056 -0.64943,-1.44045 -0.39202,-0.39202 -0.95467,-0.64943 -1.41952,-0.64943 -0.42356,0 -1.08381,0.24676 -1.46724,0.54837 -0.50494,0.39719 -0.69714,0.79241 -0.69714,1.43356 0,0.48686 0.0774,1.08677 0.17189,1.33314 0.0945,0.24637 0.54102,0.60765 0.99219,0.80286 0.45116,0.19521 1.05842,0.29141 1.34946,0.21378 0.29104,-0.0776 0.79706,-0.43582 1.12448,-0.79598 z m 2.97656,2.27377 c 0,-0.15175 0.41672,-1.04771 0.92605,-1.99101 0.50932,-0.94331 0.92566,-1.86094 0.9252,-2.03919 -4.7e-4,-0.17825 -0.47634,-1.03847 -1.0575,-1.9116 -0.58115,-0.87312 -1.05702,-1.67679 -1.05749,-1.78593 -4.6e-4,-0.10914 0.41478,-0.19844 0.92277,-0.19844 0.76419,0 1.02678,0.15922 1.52135,0.92249 0.32876,0.50737 0.67989,0.89433 0.78029,0.8599 0.1004,-0.0344 0.45759,-0.47169 0.79375,-0.9717 0.44491,-0.66175 0.84517,-0.93571 1.4711,-1.00689 0.47295,-0.0538 0.8599,-0.009 0.8599,0.0996 0,0.10858 -0.43643,1.0452 -0.96984,2.08139 l -0.96983,1.88399 1.10841,1.6322 c 0.60963,0.89772 1.17785,1.81317 1.26273,2.03435 0.1217,0.31715 -0.0614,0.40171 -0.86618,0.4001 l -1.0205,-0.002 -0.60321,-1.05629 c -0.33177,-0.58097 -0.7107,-1.0563 -0.84207,-1.0563 -0.13137,0 -0.31131,0.22831 -0.39988,0.50735 -0.0886,0.27904 -0.40288,0.81482 -0.69849,1.19062 -0.35919,0.45665 -0.79437,0.68328 -1.31201,0.68328 -0.426,0 -0.77455,-0.12416 -0.77455,-0.27591 z M 200.2896,147.82 c 0,-1.07511 -0.077,-2.86569 -0.17112,-3.97905 l -0.17111,-2.02429 h 0.96486 0.96487 l 0.002,1.65364 c 0.001,0.90951 0.0767,2.27306 0.16765,3.03011 l 0.16536,1.37646 1.3537,0.0788 1.3537,0.0788 v 0.79375 0.79375 l -2.31511,0.0765 -2.3151,0.0764 z m 7.14902,1.2212 c -0.50642,-0.26272 -1.19103,-0.88223 -1.52135,-1.37669 -0.40778,-0.61041 -0.60027,-1.28993 -0.5996,-2.11667 6.1e-4,-0.74782 0.20385,-1.55036 0.52675,-2.07996 0.28917,-0.47427 0.9138,-1.10598 1.38807,-1.40379 0.65832,-0.41338 1.18517,-0.51767 2.22701,-0.44085 0.75058,0.0553 1.68445,0.31013 2.07527,0.56621 0.39082,0.25607 0.94668,0.99933 1.23525,1.65169 0.39195,0.88607 0.47836,1.46017 0.34161,2.2696 -0.12159,0.71966 -0.5118,1.43593 -1.16204,2.13302 l -0.97898,1.04952 -1.30561,0.1128 c -0.92055,0.0795 -1.57717,-0.0281 -2.22638,-0.36488 z m 3.1003,-1.80819 c 0.31761,-0.22246 0.65266,-0.80524 0.74455,-1.29506 0.0927,-0.49424 0.035,-1.13725 -0.12958,-1.44486 -0.16315,-0.30486 -0.66253,-0.7435 -1.10972,-0.97475 -0.67236,-0.34769 -0.94749,-0.36478 -1.58977,-0.0987 -0.42718,0.17695 -0.8912,0.53569 -1.03116,0.7972 -0.13996,0.26152 -0.25447,0.86259 -0.25447,1.33572 0,0.51908 0.22815,1.1031 0.57528,1.47261 0.36165,0.38495 0.88021,0.61236 1.39634,0.61236 0.45158,0 1.08091,-0.18201 1.39853,-0.40448 z m 6.60797,1.82774 c -0.1037,-0.1037 -0.18854,-1.16584 -0.18854,-2.36033 0,-1.19448 -0.0744,-2.54386 -0.16536,-2.99861 -0.12951,-0.64753 -0.30163,-0.82682 -0.79375,-0.82682 -0.51666,0 -0.62839,-0.1361 -0.62839,-0.76544 0,-0.45391 0.17034,-0.83081 0.41851,-0.92604 0.23019,-0.0883 1.30175,-0.1606 2.38125,-0.1606 h 1.96274 v 0.92604 0.92604 h -0.80927 -0.80927 l 0.0817,3.10885 0.0817,3.10886 -0.67136,0.0783 c -0.36925,0.0431 -0.7562,-0.007 -0.85989,-0.11025 z m 4.04479,-1.6472 c 0,-0.85077 -0.0774,-2.6367 -0.17191,-3.96875 l -0.17191,-2.42189 h 0.96566 0.96566 v 1.14946 c 0,0.63221 0.0776,2.41815 0.1725,3.96875 l 0.1725,2.81929 h -0.96625 -0.96625 z m 3.04925,1.29285 c -0.10447,-0.16903 -0.25491,-1.94863 -0.33433,-3.95468 l -0.14438,-3.64736 1.02983,-0.1701 c 0.56641,-0.0936 1.72199,-0.17142 2.56796,-0.17303 l 1.53812,-0.003 -0.0829,0.8599 -0.0829,0.8599 -1.52136,0.0794 -1.52135,0.0793 v 0.64825 0.64825 h 1.32292 1.32291 v 0.78464 0.78464 l -1.32291,0.17549 c -1.05365,0.13977 -1.32292,0.27626 -1.32292,0.67057 0,0.27229 0.14883,0.51237 0.33073,0.53349 0.1819,0.0211 0.92604,0.0509 1.65364,0.0661 l 1.32292,0.0277 0.0829,0.8599 0.0829,0.85989 h -1.57119 c -0.86416,0 -1.92882,0.0715 -2.36593,0.15895 -0.48086,0.0962 -0.86974,0.0376 -0.98466,-0.14837 z m 5.82666,-3.86873 c -0.14063,-2.83911 -0.11003,-3.93723 0.11355,-4.07541 0.16833,-0.10403 0.62034,-0.17724 1.00446,-0.16269 0.58075,0.022 0.90097,0.37089 1.90069,2.07087 0.66125,1.12442 1.30207,2.04715 1.42405,2.05052 0.12198,0.003 0.18264,-0.91662 0.1348,-2.04441 l -0.087,-2.05052 0.81783,-0.08 0.81784,-0.08 0.16996,1.79975 c 0.0935,0.98987 0.17081,2.78202 0.17185,3.98257 l 0.002,2.18281 h -0.91909 -0.91909 l -1.26373,-1.98386 c -0.69504,-1.09112 -1.35152,-1.98409 -1.45882,-1.98438 -0.10731,-2.8e-4 -0.16684,0.92222 -0.13229,2.05001 l 0.0628,2.05052 -0.82362,0.0802 -0.82361,0.0802 z m 7.43724,1.01388 c -0.094,-1.41883 -0.17144,-3.26429 -0.17219,-4.10104 l -0.001,-1.52135 h 2.51354 2.51354 v 0.92604 0.92604 h -1.6059 -1.6059 l 0.0845,0.59531 0.0845,0.59531 h 1.19063 1.19062 l 0.0829,0.8599 0.0829,0.8599 h -1.0427 c -0.57349,0 -1.1784,0.1635 -1.34425,0.36334 -0.16584,0.19983 -0.22383,0.56583 -0.12886,0.81333 0.14008,0.36506 0.45309,0.43382 1.65821,0.36427 l 1.48553,-0.0857 0.08,0.82034 0.08,0.82035 -1.79975,0.16996 c -0.98986,0.0935 -2.10922,0.17081 -2.48745,0.17184 l -0.6877,0.002 z m 6.45156,1.93093 c -0.17536,-0.2113 -0.24145,-0.62802 -0.14686,-0.92604 0.0946,-0.29803 0.37827,-0.54187 0.6304,-0.54187 0.25213,0 0.60129,0.14288 0.77592,0.3175 0.17462,0.17463 0.3175,0.40425 0.3175,0.51027 0,0.10602 -0.1871,0.37987 -0.41577,0.60854 -0.22868,0.22868 -0.51176,0.41578 -0.62907,0.41578 -0.1173,0 -0.35676,-0.17288 -0.53212,-0.38418 z m -0.33804,-3.00283 c -0.0685,-0.26213 -0.14816,-1.45275 -0.17691,-2.64583 l -0.0523,-2.16925 h 0.93981 0.93981 v 2.64584 2.64583 h -0.7629 c -0.51232,0 -0.80382,-0.15654 -0.88752,-0.47659 z m -71.45162,-0.21781 c -0.10315,-0.10315 -0.18755,-0.39125 -0.18755,-0.64022 0,-0.24897 0.16351,-0.58837 0.36334,-0.75422 0.19984,-0.16584 0.56347,-0.22474 0.80807,-0.13088 0.29389,0.11277 0.41743,0.40597 0.36426,0.86446 -0.0537,0.46287 -0.26021,0.71953 -0.62051,0.77111 -0.29703,0.0425 -0.62445,-0.007 -0.72761,-0.11025 z M 40.613559,143.66452 c 2.18281,-0.13992 7.3025,-0.43019 11.37709,-0.64503 4.07458,-0.21485 8.3013,-0.45851 9.3927,-0.54146 1.09141,-0.083 5.2586,-0.32354 9.26042,-0.53463 4.00182,-0.21109 9.41917,-0.50293 12.03854,-0.64853 2.61938,-0.1456 7.91766,-0.445 11.77396,-0.66532 3.8563,-0.22032 9.154581,-0.52401 11.773961,-0.67486 2.61937,-0.15085 7.91765,-0.44332 11.77396,-0.64992 3.8563,-0.20661 9.15458,-0.49808 11.77395,-0.64771 2.61938,-0.14963 6.90563,-0.39676 9.525,-0.54918 2.61938,-0.15242 7.91766,-0.44851 11.77396,-0.65799 3.8563,-0.20948 10.34521,-0.56203 14.41979,-0.78345 4.07459,-0.22141 9.07521,-0.51778 11.1125,-0.65859 2.03729,-0.14082 5.4049,-0.33566 7.48357,-0.43299 l 3.77941,-0.17697 0.27448,-0.51288 c 0.15097,-0.28208 1.85371,-2.91575 3.78386,-5.8526 1.93016,-2.93684 4.1838,-6.38043 5.00809,-7.65242 0.8243,-1.272 1.49872,-2.45213 1.49872,-2.62252 0,-0.23409 -2.21438,-0.26647 -9.06198,-0.13252 -4.98409,0.0975 -20.37292,0.3499 -34.1974,0.56088 -13.82448,0.21099 -27.57619,0.45012 -30.55937,0.5314 -2.98318,0.0813 -14.41318,0.26363 -25.400001,0.40521 -10.98682,0.14158 -22.23823,0.31618 -25.00313,0.388 -2.76489,0.0718 -9.27903,0.2088 -14.47585,0.3044 l -9.44877,0.17381 -2.87632,4.26244 c -1.58198,2.34434 -4.96023,7.35807 -7.50722,11.14161 -2.54699,3.78354 -4.71702,7.02799 -4.82229,7.20989 -0.13715,0.237 0.0567,0.32869 0.68411,0.32353 0.48153,-0.004 2.66145,-0.12169 4.84426,-0.2616 z m 16.40417,-5.2609 c -0.29104,-0.12829 -0.78913,-0.51417 -1.10686,-0.85751 -0.31772,-0.34333 -0.70553,-0.96166 -0.86178,-1.37405 -0.15626,-0.4124 -0.2167,-0.85888 -0.13431,-0.99219 0.0824,-0.13331 0.57561,-0.24238 1.09604,-0.24238 0.66945,0 1.12554,0.19348 1.55925,0.66146 0.33716,0.3638 0.79455,0.66146 1.01643,0.66146 0.22187,0 0.59883,-0.29826 0.83768,-0.66279 0.32973,-0.50323 0.36202,-0.74984 0.13412,-1.02443 -0.16508,-0.19891 -0.98283,-0.61597 -1.81723,-0.9268 -0.86857,-0.32355 -1.72697,-0.85585 -2.00806,-1.2452 -0.27004,-0.37403 -0.55101,-1.12763 -0.62438,-1.67465 -0.0852,-0.63498 0.0222,-1.29554 0.29702,-1.82693 0.23672,-0.45778 0.77967,-1.01294 1.20654,-1.23368 0.42688,-0.22075 1.21016,-0.40136 1.74064,-0.40136 0.53048,0 1.29416,0.19474 1.69707,0.43274 0.40291,0.23801 0.92729,0.76239 1.1653,1.1653 0.23801,0.40291 0.43274,0.86303 0.43274,1.02247 0,0.16734 -0.50492,0.28991 -1.19422,0.28991 -0.65682,0 -1.4288,-0.1465 -1.71551,-0.32556 -0.43149,-0.26946 -0.60018,-0.24667 -0.97915,0.13229 l -0.45785,0.45785 0.38743,0.35452 c 0.21308,0.19499 0.94263,0.55808 1.62122,0.80687 0.6786,0.24878 1.53891,0.75744 1.91181,1.13034 0.3729,0.3729 0.75583,1.09286 0.85095,1.59991 0.0951,0.50705 0.0355,1.38069 -0.13251,1.94143 -0.18383,0.61357 -0.63232,1.25227 -1.12637,1.60406 -0.48266,0.34369 -1.32482,0.62073 -2.04388,0.67236 -0.67263,0.0483 -1.46109,-0.0171 -1.75213,-0.14544 z m 6.37043,-4.45832 c -0.0925,-2.43747 -0.23154,-4.93778 -0.30896,-5.55625 l -0.14077,-1.12448 h 1.30284 1.30285 l 0.19138,5.28003 c 0.10526,2.90402 0.11456,5.40433 0.0207,5.55625 -0.0939,0.15192 -0.62726,0.27622 -1.18527,0.27622 h -1.01455 z m 8.31394,1.29559 c 0,-1.43387 -0.0765,-3.33887 -0.16998,-4.23334 l -0.16998,-1.62631 h -1.03514 -1.03514 l 0.0806,-1.25677 0.0806,-1.25677 3.24114,-0.0743 3.24115,-0.0743 v 1.19877 1.19877 h -0.89774 c -0.49375,0 -0.95603,0.15192 -1.02729,0.33761 -0.0712,0.18569 -0.0216,1.99733 0.11038,4.02587 0.13196,2.02854 0.18125,3.84115 0.10955,4.02801 -0.0796,0.20745 -0.59725,0.33976 -1.32931,0.33976 h -1.19893 z m 8.33438,1.96333 c -0.43656,-0.21297 -0.98381,-0.54222 -1.21611,-0.73166 -0.2323,-0.18945 -0.64708,-0.76116 -0.92173,-1.27049 -0.40917,-0.75878 -0.51647,-1.63092 -0.59409,-4.82864 l -0.0947,-3.90261 h 1.18779 1.18778 l 0.18556,3.63802 c 0.12287,2.40907 0.31285,3.83913 0.56237,4.23334 0.26848,0.42416 0.63198,0.59531 1.26436,0.59531 0.50159,0 1.04492,-0.18962 1.24943,-0.43605 0.27955,-0.33683 0.34226,-1.33011 0.27563,-4.36562 l -0.0863,-3.92958 h 1.18652 1.18651 l 0.18946,2.77952 c 0.1042,1.52873 0.13771,3.49486 0.0745,4.36918 -0.0747,1.03252 -0.30016,1.83769 -0.64336,2.29736 -0.2906,0.38924 -0.83484,0.93651 -1.2094,1.21616 -0.37457,0.27966 -1.20065,0.55673 -1.83574,0.61573 -0.68687,0.0638 -1.47629,-0.0496 -1.94845,-0.27997 z m 10.06268,-0.23027 c -0.053,-0.17417 -0.16475,-2.65263 -0.24831,-5.5077 l -0.15192,-5.19103 1.11683,-0.1498 c 0.61426,-0.0824 1.14162,-0.12502 1.1719,-0.0947 0.0303,0.0303 0.12776,1.60021 0.21662,3.48874 0.0889,1.88853 0.22286,3.83281 0.29779,4.32062 l 0.13624,0.88694 1.90117,-0.0932 1.90116,-0.0932 0.0815,1.1269 c 0.0546,0.75511 -0.0327,1.16252 -0.26458,1.23486 -0.19034,0.0594 -1.63215,0.17104 -3.20403,0.24811 -2.09234,0.10259 -2.88379,0.0553 -2.95435,-0.17654 z m 11.103981,-0.35555 c -0.29104,-0.0712 -0.88635,-0.29159 -1.322911,-0.48988 -0.43656,-0.19828 -1.10758,-0.69621 -1.49115,-1.1065 -0.38357,-0.41029 -0.88959,-1.12703 -1.12448,-1.59274 -0.23725,-0.47039 -0.42377,-1.47002 -0.41963,-2.24896 0.005,-0.92893 0.21264,-1.80407 0.61536,-2.59283 0.34162,-0.66909 1.09109,-1.53088 1.71097,-1.96739 0.831001,-0.58519 1.483291,-0.80427 2.644711,-0.88828 1.27835,-0.0925 1.77546,0.007 2.91058,0.58217 0.88834,0.45016 1.62479,1.08071 2.09774,1.7961 l 0.72881,1.10241 v 2.02337 2.02337 l -0.74901,0.98183 c -0.41195,0.54001 -1.18586,1.26632 -1.71979,1.61402 -0.53393,0.34771 -1.50656,0.6908 -2.1614,0.76243 -0.65485,0.0716 -1.42875,0.072 -1.7198,8.8e-4 z m 2.66692,-2.97352 c 0.44816,-0.27329 0.9678,-0.86617 1.15475,-1.31752 0.19523,-0.47133 0.26932,-1.19696 0.17406,-1.70474 -0.0912,-0.48626 -0.50935,-1.21319 -0.92917,-1.61541 -0.59973,-0.57458 -1.02595,-0.73527 -1.98888,-0.74982 -0.99967,-0.0151 -1.36984,0.11968 -2.00823,0.7313 -0.430451,0.4124 -0.857281,1.14767 -0.948511,1.63393 -0.0939,0.50061 -0.0224,1.23039 0.16481,1.68241 0.18187,0.43907 0.628271,1.0324 0.992001,1.31851 0.38142,0.30003 1.06617,0.51978 1.61783,0.51921 0.52608,-5.4e-4 1.32318,-0.22459 1.77134,-0.49787 z m 14.24813,2.58594 c -0.11618,-0.18798 -0.62748,-0.23505 -1.41642,-0.1304 -0.78018,0.1035 -1.71987,0.0197 -2.553,-0.22774 -0.79476,-0.23602 -1.64529,-0.73593 -2.14145,-1.25867 -0.45268,-0.47693 -1.01498,-1.24819 -1.24955,-1.7139 -0.23458,-0.46572 -0.4265,-1.45273 -0.4265,-2.19335 0,-0.8057 0.20403,-1.74653 0.50794,-2.34225 0.27937,-0.5476 0.88417,-1.36348 1.34402,-1.81306 0.45984,-0.44958 1.36406,-0.96525 2.00938,-1.14593 0.6882,-0.19268 1.687,-0.25809 2.41577,-0.1582 0.68336,0.0937 1.70324,0.48961 2.26641,0.87989 0.58263,0.40376 1.29988,1.25412 1.66417,1.97302 0.4393,0.86691 0.63923,1.70212 0.63704,2.66128 -0.002,1.0023 -0.19061,1.72571 -0.66552,2.55648 -0.53838,0.94181 -0.60113,1.23236 -0.33532,1.55264 0.27014,0.3255 0.19033,0.50337 -0.45897,1.02287 -0.43228,0.34588 -0.92776,0.62945 -1.10108,0.63018 -0.17331,7.2e-4 -0.39693,-0.13107 -0.49692,-0.29286 z m -2.23067,-2.77384 c 0,-0.0867 -0.24058,-0.49546 -0.53463,-0.90841 l -0.53463,-0.75082 0.96068,-0.73274 0.96067,-0.73274 0.74422,0.91185 c 0.40933,0.50153 0.84268,0.8134 0.96302,0.69307 0.12034,-0.12034 0.21879,-0.73684 0.21879,-1.37 0,-0.91207 -0.16076,-1.31901 -0.77394,-1.95903 -0.42568,-0.44431 -1.15535,-0.87938 -1.62151,-0.96683 -0.52369,-0.0983 -1.1381,-0.009 -1.60792,0.2342 -0.41821,0.21626 -0.9552,0.61375 -1.19332,0.88331 -0.23813,0.26956 -0.51065,0.85638 -0.60562,1.30404 -0.095,0.44766 -0.0449,1.16204 0.11121,1.5875 0.15613,0.42546 0.60753,1.04087 1.00311,1.36757 0.39559,0.3267 0.98713,0.59459 1.31456,0.59531 0.32742,7.2e-4 0.59531,-0.0696 0.59531,-0.15628 z m 8.22641,1.70251 c -0.49594,-0.34038 -1.14442,-0.9465 -1.44106,-1.34693 l -0.53935,-0.72806 -0.22178,-4.0032 c -0.12197,-2.20176 -0.18787,-4.03064 -0.14644,-4.06419 0.0414,-0.0335 0.56636,-0.12355 1.16648,-0.20003 l 1.09114,-0.13904 0.16333,1.35941 c 0.0898,0.74768 0.16437,2.34951 0.16564,3.55962 0.001,1.21012 0.12914,2.43722 0.28418,2.72691 0.15503,0.28968 0.54137,0.62268 0.85852,0.74001 0.31715,0.11732 0.9054,0.0987 1.30722,-0.0414 0.44838,-0.1563 0.7956,-0.51379 0.89894,-0.92553 0.0926,-0.36897 0.0875,-2.20254 -0.0113,-4.0746 l -0.17969,-3.40375 h 1.18473 c 0.65161,0 1.24312,0.0945 1.31447,0.20992 0.0714,0.11545 0.16566,1.93116 0.20956,4.03489 0.0671,3.21715 0.008,3.95831 -0.37471,4.66402 -0.25,0.46147 -0.83238,1.10808 -1.29418,1.43691 -0.52013,0.37037 -1.35228,0.63898 -2.1868,0.70589 -1.09193,0.0875 -1.51801,-0.009 -2.24888,-0.51088 z m 7.78172,-4.96146 c -0.10606,-2.89774 -0.11285,-5.39805 -0.0151,-5.55625 0.0978,-0.15819 0.62869,-0.28762 1.17982,-0.28762 h 1.00206 l 0.17295,3.21654 c 0.0951,1.76909 0.17295,4.26941 0.17295,5.55625 v 2.33971 h -1.15992 -1.15993 z m 4.22885,4.99814 c -0.0899,-0.14549 -0.23309,-2.62548 -0.31815,-5.51109 l -0.15466,-5.24655 2.06409,-0.17448 c 1.13524,-0.096 2.70096,-0.17448 3.47937,-0.17448 h 1.41529 v 1.1518 1.15181 l -2.00732,0.16968 c -1.10403,0.0933 -2.11606,0.23688 -2.24896,0.31902 -0.1329,0.0821 -0.24164,0.43997 -0.24164,0.79518 v 0.64585 h 1.82313 1.82314 l 0.12133,0.99218 c 0.0667,0.54571 0.067,1.14102 6.4e-4,1.32292 -0.0794,0.21751 -0.69974,0.33073 -1.81217,0.33073 h -1.69149 v 0.95318 0.95317 l 2.17044,-0.0933 2.17044,-0.0933 0.21649,1.03943 c 0.11907,0.57168 0.12464,1.12199 0.0124,1.2229 -0.11226,0.10091 -1.65643,0.25691 -3.43148,0.34666 -2.04515,0.10341 -3.28726,0.0663 -3.39086,-0.10135 z m 8.23201,-1.38316 c -0.0761,-0.61846 -0.18664,-3.05259 -0.24558,-5.40916 -0.0892,-3.567 -0.043,-4.30932 0.27615,-4.43177 0.21082,-0.0809 0.959,-0.14709 1.66264,-0.14709 0.70364,0 1.79523,0.2227 2.42576,0.49488 0.63053,0.27218 1.35023,0.72303 1.59934,1.00187 0.24911,0.27885 0.63808,0.95012 0.86438,1.49172 0.24518,0.58679 0.34244,1.27787 0.24069,1.71011 -0.0939,0.39896 -0.40539,1.1157 -0.69215,1.59276 l -0.52138,0.86737 1.12075,1.7202 c 0.61641,0.9461 1.07469,1.7594 1.01839,1.80732 -0.0563,0.0479 -0.63855,0.15714 -1.2939,0.2427 l -1.19155,0.15557 -1.00713,-1.44121 c -0.55393,-0.79266 -1.17859,-1.44121 -1.38815,-1.44121 -0.28543,0 -0.381,0.36502 -0.381,1.45521 v 1.45521 h -1.17441 -1.17442 z m 3.6422,-4.71556 c 0.40288,-0.3169 0.69714,-0.81313 0.69714,-1.17562 0,-0.34825 -0.26156,-0.81046 -0.58804,-1.03913 -0.32342,-0.22653 -0.79967,-0.41188 -1.05833,-0.41188 -0.39188,0 -0.47029,0.23527 -0.47029,1.41111 0,0.77612 0.0794,1.49049 0.17638,1.5875 0.097,0.097 0.25955,0.17639 0.3612,0.17639 0.10164,0 0.49852,-0.24676 0.88194,-0.54837 z m 5.37022,2.00041 c -0.0963,-2.00881 -0.17516,-4.52651 -0.17516,-5.59491 v -1.94254 h 1.81327 c 0.9973,0 2.55236,-0.0772 3.45569,-0.17167 l 1.64241,-0.17167 -0.0822,1.29615 -0.0823,1.29615 -1.98406,0.0791 c -1.09124,0.0435 -2.0886,0.1836 -2.21636,0.31136 -0.12776,0.12776 -0.15635,0.53488 -0.0635,0.90471 l 0.16877,0.67242 1.78301,-0.0577 1.78301,-0.0577 0.0806,1.25677 0.0806,1.25677 h -1.86658 -1.86658 v 0.92604 0.92604 h 2.38125 2.38125 v 1.04272 c 0,0.5735 -0.11104,1.11135 -0.24676,1.19522 -0.13571,0.0839 -1.72376,0.22737 -3.529,0.31886 l -3.28224,0.16635 z m 9.89532,2.827 c -0.49581,-0.26591 -1.12113,-0.89098 -1.38961,-1.38906 -0.26848,-0.49808 -0.45627,-1.07295 -0.41732,-1.27748 0.0436,-0.22888 0.50323,-0.4121 1.1953,-0.47647 0.66134,-0.0615 1.12448,0.007 1.12448,0.16735 0,0.14956 0.28967,0.46173 0.64372,0.6937 0.50073,0.3281 0.76519,0.35677 1.19062,0.12909 0.33034,-0.1768 0.54691,-0.55629 0.54691,-0.95835 0,-0.52383 -0.21139,-0.74832 -0.99219,-1.05365 -0.5457,-0.2134 -1.38834,-0.58822 -1.87252,-0.83293 -0.48419,-0.2447 -1.04974,-0.77249 -1.25677,-1.17285 -0.20704,-0.40037 -0.37644,-1.20097 -0.37644,-1.77911 0,-0.74227 0.19939,-1.28813 0.67847,-1.85749 0.37315,-0.44347 1.08981,-0.91988 1.59258,-1.0587 0.55752,-0.15394 1.2398,-0.159 1.74901,-0.0129 0.4592,0.13169 1.17129,0.56172 1.58242,0.95561 0.41114,0.3939 0.74752,0.99156 0.74752,1.32813 v 0.61196 h -1.17501 c -0.64625,0 -1.24859,-0.11906 -1.33853,-0.26458 -0.0899,-0.14553 -0.38188,-0.26459 -0.64876,-0.26459 -0.26689,0 -0.56332,0.20347 -0.65875,0.45215 -0.11507,0.29987 0.0302,0.6058 0.43132,0.90837 0.33265,0.25092 0.97245,0.52519 1.42177,0.60948 0.44932,0.0843 1.12091,0.4792 1.49242,0.87757 0.37151,0.39837 0.80908,0.98437 0.97238,1.30223 0.1633,0.31785 0.29647,0.91316 0.29593,1.32291 -5.5e-4,0.40975 -0.23759,1.13304 -0.52675,1.60731 -0.28917,0.47428 -0.9138,1.09891 -1.38808,1.38808 -0.47427,0.28917 -1.28089,0.5262 -1.79248,0.52675 -0.51159,5.4e-4 -1.33583,-0.21657 -1.83164,-0.48248 z m 6.59292,-0.58486 c -0.1587,-0.29654 -0.21633,-0.7667 -0.12807,-1.0448 0.0883,-0.2781 0.39252,-0.57929 0.67612,-0.6693 0.2836,-0.09 0.74767,-0.09 1.03126,0 0.2836,0.09 0.58785,0.3912 0.67612,0.6693 0.0883,0.2781 0.0306,0.74826 -0.12807,1.0448 -0.18953,0.35413 -0.55455,0.53916 -1.06368,0.53916 -0.50913,0 -0.87415,-0.18503 -1.06368,-0.53916 z m 3.59438,0.0289 c -0.30155,-0.33321 -0.3996,-0.70595 -0.28264,-1.07446 0.0985,-0.31034 0.46289,-0.69357 0.80976,-0.85161 0.4704,-0.21433 0.73092,-0.20416 1.02514,0.04 0.21696,0.18006 0.46934,0.56328 0.56085,0.85161 0.10248,0.32288 -0.011,0.7202 -0.29534,1.03444 -0.25395,0.28061 -0.66295,0.51021 -0.90889,0.51021 -0.24593,0 -0.65493,-0.2296 -0.90888,-0.51021 z m 3.28049,-0.30156 c -0.226,-0.42229 -0.23227,-0.74733 -0.0233,-1.20608 0.20989,-0.46065 0.50066,-0.62799 1.09123,-0.62799 0.60848,0 0.88098,0.16656 1.11583,0.68201 0.21981,0.48242 0.2297,0.81149 0.0338,1.12448 -0.15233,0.24336 -0.64399,0.47919 -1.09259,0.52407 -0.61789,0.0618 -0.89064,-0.0585 -1.12502,-0.49649 z m -96.160791,-8.17499 c -0.0869,-0.14053 0.0871,-0.73584 0.38664,-1.32292 l 0.54455,-1.06741 h 0.94935 0.94935 l -0.1789,0.72761 c -0.0984,0.40018 -0.35217,0.99549 -0.56395,1.32291 -0.25444,0.39338 -0.64694,0.59532 -1.15709,0.59532 -0.42462,0 -0.84309,-0.11498 -0.92995,-0.25551 z m -7.81081,-12.72416 c 1.67349,-0.30288 4.25845,-0.95431 5.74436,-1.44763 1.48591,-0.49332 3.92669,-1.47732 5.42396,-2.18668 1.49726,-0.70936 3.55574,-1.80215 4.57438,-2.42842 1.01865,-0.62628 2.73897,-1.80552 3.82293,-2.62055 1.08397,-0.81503 3.02734,-2.48725 4.3186,-3.716061 1.29127,-1.2288 3.22949,-3.4047 4.307161,-4.83532 1.07768,-1.43063 2.22993,-3.07487 2.56057,-3.65387 0.33064,-0.579 0.67647,-1.05364 0.76852,-1.05476 0.0921,-10e-4 0.68413,0.80163 1.31574,1.7839 0.63161,0.98226 1.79958,2.61193 2.59547,3.62148 0.7959,1.00955 2.37823,2.76044 3.51628,3.89088 1.13806,1.130431 3.04994,2.812541 4.24863,3.738001 1.19869,0.92547 2.97362,2.17675 3.94429,2.78063 0.97066,0.60388 2.99473,1.68488 4.49791,2.40223 1.50319,0.71735 3.80463,1.66777 5.11432,2.11204 1.30969,0.44428 3.51137,1.05313 4.89263,1.35302 1.38125,0.29988 3.88157,0.67562 5.55625,0.83497 1.76024,0.16749 4.49603,0.21436 6.48445,0.1111 1.89177,-0.0982 4.63021,-0.40911 6.08542,-0.6908 1.45521,-0.2817 3.95552,-0.93718 5.55625,-1.45661 1.60073,-0.51944 4.2201,-1.5816 5.82083,-2.36036 1.60073,-0.77876 3.98198,-2.11612 5.29167,-2.97191 1.30969,-0.8558 3.48017,-2.47912 4.8233,-3.60739 1.34312,-1.12827 3.35034,-3.085731 4.46048,-4.349921 1.11014,-1.26418 2.89471,-3.61241 3.96572,-5.21828 1.071,-1.60588 2.53279,-4.16572 3.24841,-5.68854 0.71562,-1.52283 1.68888,-3.89987 2.16278,-5.28231 0.47391,-1.38245 1.08106,-3.5116 1.34922,-4.73143 0.26817,-1.21984 0.62286,-3.54156 0.7882,-5.15938 0.17652,-1.72713 0.23469,-4.60474 0.1409,-6.97032 -0.10725,-2.70519 -0.37314,-5.05221 -0.80931,-7.14375 -0.35726,-1.7132 -0.96588,-4.06742 -1.35248,-5.23158 -0.38661,-1.16417 -1.18913,-3.18823 -1.78339,-4.49792 -0.59426,-1.30969 -1.67306,-3.39328 -2.39732,-4.63021 -0.72427,-1.23692 -2.11868,-3.32052 -3.09869,-4.6302 -0.98,-1.30969 -2.9559,-3.51775 -4.39087,-4.9068 -1.43497,-1.38905 -3.32341,-3.05214 -4.19653,-3.69576 -0.87313,-0.64362 -2.35851,-1.68745 -3.30084,-2.31963 -0.94233,-0.63218 -3.14499,-1.84268 -4.89479,-2.69001 -1.7498,-0.84732 -4.34627,-1.91495 -5.76993,-2.37251 -1.42366,-0.45756 -3.74538,-1.08908 -5.15938,-1.40336 l -2.5709,-0.57143 -6.2177,-0.0114 c -4.99236,-0.009 -6.66093,0.0819 -8.46667,0.46203 -1.23693,0.26039 -3.0824,0.71304 -4.10104,1.0059 -1.01865,0.29285 -2.80459,0.8981 -3.96875,1.34499 -1.16417,0.44688 -2.94644,1.22715 -3.96061,1.73393 -1.01416,0.50678 -2.62151,1.40855 -3.57187,2.00393 -0.95037,0.59539 -2.62091,1.73766 -3.71231,2.53838 -1.09141,0.80071 -3.02716,2.45998 -4.30167,3.68727 -1.27451,1.22727 -3.19077,3.37435 -4.25835,4.77127 -1.06759,1.39692 -2.22747,3.04496 -2.57751,3.6623 -0.35004,0.61735 -0.75549,1.12232 -0.90102,1.12217 -0.14552,-1.5e-4 -0.74083,-0.74157 -1.32291,-1.64759 -0.58209,-0.90602 -1.72303,-2.48256 -2.53544,-3.50341 -0.812411,-1.02086 -2.419751,-2.792 -3.571881,-3.93587 -1.15212,-1.14387 -2.99171,-2.76669 -4.08797,-3.60628 -1.09626,-0.83958 -2.86009,-2.0873 -3.91961,-2.7727 -1.05953,-0.6854 -3.25821,-1.88116 -4.88596,-2.65723 -1.62776,-0.77608 -4.03112,-1.7645 -5.34081,-2.1965 -1.30969,-0.432 -3.69094,-1.06313 -5.29167,-1.40251 l -2.91041,-0.61706 -6.08542,2.9e-4 -6.08541,2.9e-4 -2.77813,0.59988 c -1.52797,0.32994 -4.02828,1.02979 -5.55625,1.55522 -1.52797,0.52543 -3.64476,1.35776 -4.70397,1.84962 -1.05922,0.49186 -2.92884,1.48671 -4.1547,2.21078 -1.22587,0.72406 -3.21337,2.05833 -4.41666,2.96504 -1.2033,0.90671 -2.94039,2.35256 -3.8602,3.213 -0.91981,0.86044 -2.42442,2.46878 -3.34358,3.57409 -0.91916,1.10532 -2.35625,3.0217 -3.19353,4.25862 -0.83728,1.23693 -2.27259,3.79677 -3.18957,5.68855 -0.91699,1.89177 -2.02624,4.53608 -2.46501,5.87625 -0.43876,1.34017 -1.07371,3.72142 -1.41099,5.29167 l -0.61323,2.85499 6.1e-4,6.35 6.2e-4,6.35 0.61533,2.77813 c 0.33843,1.52796 0.79548,3.37343 1.01567,4.10104 0.22019,0.7276 0.63362,1.91823 0.91874,2.64583 0.28512,0.7276 0.62021,1.56104 0.74464,1.85208 0.12444,0.29105 0.57455,1.30399 1.00026,2.251 0.42571,0.947 1.45487,2.83941 2.28703,4.20535 0.83216,1.36594 2.06914,3.21049 2.74885,4.099 0.67972,0.88852 2.3701,2.78955 3.75641,4.22452 1.38632,1.434971 3.59213,3.411051 4.90182,4.391281 1.30969,0.98023 3.21469,2.28462 4.23334,2.89864 1.01864,0.61402 2.92364,1.63025 4.23333,2.2583 1.30969,0.62804 3.49795,1.51598 4.8628,1.9732 1.36486,0.45722 3.6211,1.0782 5.01387,1.37995 1.39277,0.30176 3.55029,0.64811 4.79448,0.76968 1.2442,0.12157 3.98859,0.1709 6.09864,0.10963 2.23818,-0.065 5.10406,-0.34082 6.87917,-0.66209 z M 57.017729,92.427569 c -0.29104,-0.0633 -1.24354,-0.28672 -2.11667,-0.49641 -0.87312,-0.2097 -2.22457,-0.62439 -3.00321,-0.92154 -0.77865,-0.29715 -2.0288,-0.84809 -2.77813,-1.2243 -0.74932,-0.37621 -2.13631,-1.23181 -3.0822,-1.90134 -0.94588,-0.66952 -2.24529,-1.69709 -2.88758,-2.28349 -0.64228,-0.58639 -1.86488,-1.93995 -2.71688,-3.00791 -0.852,-1.06795 -2.1422,-3.15071 -2.86711,-4.62835 -0.72491,-1.47764 -1.31801,-2.77675 -1.31801,-2.88691 0,-0.11016 5.86383,-0.20158 13.03073,-0.20316 10.78464,-0.002 13.2549,-0.0709 14.33129,-0.3974 0.71532,-0.21699 1.80922,-0.69262 2.4309,-1.05695 0.62168,-0.36433 1.53965,-1.16777 2.03992,-1.78542 0.50028,-0.61764 1.112,-1.52141 1.35939,-2.00837 0.24739,-0.48696 0.5467,-1.49841 0.66514,-2.24766 0.11845,-0.74926 0.11483,-2.07342 -0.008,-2.94258 -0.12286,-0.86917 -0.49099,-2.10063 -0.81808,-2.73659 -0.32708,-0.63596 -1.04275,-1.61797 -1.59036,-2.18225 -0.54761,-0.56427 -1.62482,-1.35745 -2.3938,-1.76262 l -1.39815,-0.73667 -13.82448,-0.0751 c -9.2735,-0.0504 -13.82448,-0.16498 -13.82448,-0.34807 0,-0.15011 0.39672,-1.13159 0.8816,-2.18106 0.48489,-1.04946 1.43191,-2.74343 2.10451,-3.76436 0.6726,-1.02094 2.06094,-2.70769 3.08521,-3.74834 1.02427,-1.04064 2.60732,-2.4237 3.51789,-3.07346 0.91057,-0.64975 2.62653,-1.66587 3.81325,-2.25803 1.18672,-0.59216 3.32985,-1.38248 4.7625,-1.75625 1.43266,-0.37378 3.76024,-0.75117 5.17241,-0.83866 1.53224,-0.0949 3.55933,-0.0249 5.02708,0.17365 1.35273,0.18298 3.41201,0.62956 4.57617,0.99239 1.16417,0.36283 3.05619,1.14574 4.20451,1.7398 1.14831,0.59406 2.75565,1.57213 3.57187,2.17349 0.81622,0.60136 2.23071,1.78515 3.14332,2.63065 0.9126,0.8455 2.3009,2.50436 3.0851,3.68637 0.78421,1.182 1.63716,2.59558 1.89546,3.14128 l 0.46962,0.99219 h 18.057981 18.05797 l 0.82921,-1.63177 c 0.45606,-0.89748 1.49266,-2.5133 2.30355,-3.59072 0.81089,-1.07742 2.32062,-2.6733 3.35496,-3.54641 1.03434,-0.87311 2.73508,-2.12166 3.77942,-2.77456 1.04434,-0.6529 2.91906,-1.60305 4.16604,-2.11144 1.24697,-0.50838 3.07142,-1.09626 4.05432,-1.30638 0.9829,-0.21012 2.98628,-0.45893 4.45196,-0.55291 1.63163,-0.10462 3.52947,-0.0468 4.89479,0.14915 1.22646,0.17602 3.18242,0.60914 4.34659,0.9625 1.16416,0.35335 2.92474,1.05812 3.91238,1.56616 0.98765,0.50803 2.53546,1.42577 3.43958,2.03942 0.90413,0.61365 2.4827,1.95455 3.50793,2.97978 1.02523,1.02523 2.36858,2.60741 2.98523,3.51596 0.61665,0.90855 1.59353,2.62865 2.17084,3.82246 0.57731,1.19381 1.04966,2.32569 1.04966,2.51529 0,0.27869 -2.55759,0.34472 -13.35153,0.34472 h -13.35153 l -1.52933,0.5722 c -1.07531,0.40232 -1.96879,1.01165 -3.00961,2.05247 -1.05817,1.05817 -1.64995,1.9324 -2.07531,3.06582 -0.47919,1.27685 -0.57719,1.99766 -0.50336,3.70222 0.0681,1.57129 0.25785,2.45575 0.73659,3.43268 0.35469,0.72381 1.14433,1.81545 1.75475,2.42587 0.61042,0.61042 1.50963,1.31668 1.99824,1.56947 0.48861,0.25279 1.4837,0.61825 2.2113,0.81214 1.01524,0.27053 4.32693,0.35325 14.23918,0.35566 l 12.91627,0.003 -0.18596,0.59531 c -0.10227,0.32742 -0.45924,1.21656 -0.79325,1.97587 -0.33402,0.7593 -1.16806,2.24758 -1.85343,3.30729 -0.68536,1.0597 -2.09259,2.80037 -3.12717,3.86815 -1.03458,1.06778 -2.60472,2.45817 -3.4892,3.08975 -0.88448,0.63159 -2.37276,1.54153 -3.30729,2.0221 -0.93453,0.48057 -2.11587,1.03309 -2.62519,1.22783 -0.50932,0.19473 -1.75948,0.59457 -2.77813,0.88853 -1.31275,0.37883 -2.97747,0.5754 -5.71668,0.67503 -3.02057,0.10985 -4.3469,0.0428 -6.07288,-0.30691 -1.21454,-0.2461 -2.92637,-0.69596 -3.80405,-0.9997 -0.87768,-0.30374 -2.19301,-0.85003 -2.92296,-1.21397 -0.72995,-0.36394 -2.22015,-1.25499 -3.31155,-1.98011 -1.09141,-0.72511 -3.05594,-2.41171 -4.36563,-3.74798 -1.76401,-1.79983 -2.72415,-3.05661 -3.70416,-4.84856 l -1.32292,-2.41896 -18.00102,-0.008 -18.001031,-0.008 -0.82015,1.66319 c -0.45109,0.91475 -1.53707,2.61139 -2.41329,3.77031 -0.87623,1.15892 -2.45742,2.815 -3.51377,3.68019 -1.05635,0.86518 -2.85804,2.13646 -4.00378,2.82506 -1.14573,0.68861 -2.88219,1.55508 -3.8588,1.92551 -0.97661,0.37042 -2.78769,0.91401 -4.02462,1.20797 -1.72722,0.41049 -3.0776,0.52779 -5.82083,0.50564 -1.96453,-0.0159 -3.81,-0.0807 -4.10104,-0.14399 z M 200.76334,112.24942 c 0.28038,-0.40018 2.8624,-4.65667 5.73784,-9.45885 2.87543,-4.802191 5.4972,-9.147971 5.82616,-9.657301 0.32896,-0.50932 1.41508,-2.31583 2.41362,-4.01447 1.31246,-2.23266 1.90189,-3.01674 2.12723,-2.82973 0.17144,0.14229 0.82741,1.10999 1.45771,2.15046 0.63029,1.04046 2.03896,3.35904 3.13037,5.15239 1.0914,1.79335 4.18703,6.884401 6.87916,11.313441 l 4.89479,8.0528 12.37858,0.009 12.37858,0.009 -0.31451,-0.59531 c -0.17298,-0.32742 -2.45191,-4.10766 -5.06427,-8.40052 -2.61237,-4.292871 -5.01945,-8.221931 -5.34907,-8.731251 -0.32963,-0.50932 -1.41841,-2.28672 -2.41952,-3.94977 -1.00111,-1.66306 -2.55779,-4.2229 -3.4593,-5.68855 -0.9015,-1.46564 -1.92404,-3.14106 -2.27231,-3.72314 -0.34827,-0.58208 -2.57131,-4.21349 -4.9401,-8.06979 -2.36879,-3.8563 -4.51411,-7.37165 -4.76738,-7.81189 l -0.46049,-0.80044 3.0021,-5.0204 c 1.65115,-2.76122 3.36802,-5.61571 3.81526,-6.34331 0.44724,-0.72761 5.08325,-8.46225 10.30224,-17.1881 5.219,-8.72585 9.43117,-15.9589 9.36038,-16.07344 -0.0708,-0.11454 -5.53038,-0.20825 -12.13243,-0.20825 h -12.00372 l -0.54837,0.69714 c -0.30161,0.38342 -0.54837,0.84975 -0.54837,1.03628 0,0.18653 -0.0925,0.37883 -0.20561,0.42734 -0.11308,0.0485 -1.63113,2.4991 -3.37344,5.44576 -1.7423,2.94666 -3.53492,5.98275 -3.98359,6.74688 -0.44867,0.76412 -1.93695,3.27706 -3.30729,5.58431 -1.37034,2.30726 -2.58944,4.21226 -2.7091,4.23334 -0.11966,0.0211 -1.20269,-1.56902 -2.40673,-3.53355 -1.20404,-1.96453 -3.17801,-5.17922 -4.3866,-7.14375 -1.2086,-1.96454 -3.18594,-5.17922 -4.3941,-7.14375 -1.20816,-1.96454 -2.56035,-4.19696 -3.00486,-4.96094 l -0.80821,-1.38906 h -12.19943 -12.19943 l 0.12219,0.46302 c 0.0672,0.25466 2.81489,4.89096 6.10597,10.30289 3.29108,5.41193 6.85162,11.27192 7.91232,13.02219 1.06069,1.75028 3.0726,5.0614 4.47092,7.35805 1.39831,2.29665 3.86211,6.33814 5.47512,8.98109 l 2.93273,4.80537 -3.6431,6.17484 c -2.00371,3.39616 -6.95756,11.71124 -11.00855,18.47796 -4.05099,6.76672 -8.6357,14.446251 -10.18825,17.065631 -1.55254,2.61937 -2.96599,5.03039 -3.14098,5.35781 l -0.31818,0.59531 h 12.16212 12.16213 z"
     id="path2" /></svg>
